<svg version="1.1" id="Layer_1" xmlns="http://www.w3.org/2000/svg" xmlns:xlink="http://www.w3.org/1999/xlink" x="0px"
	y="0px" width="100%" viewBox="0 0 3000 3000" enable-background="new 0 0 3000 3000" xml:space="preserve">
	<path fill="#FFFFFF" opacity="1.000000" stroke="none" d="
M1660.000000,3002.000000 
	C1106.666748,3002.000000 554.333557,3002.000000 2.000222,3002.000000 
	C2.000148,2002.000244 2.000148,1002.000549 2.000074,2.000625 
	C1001.999512,2.000417 2001.999023,2.000417 3001.999023,2.000208 
	C3001.999268,1001.999329 3001.999268,2001.998657 3001.999512,3001.999023 
	C2555.000000,3002.000000 2108.000000,3002.000000 1660.000000,3002.000000 
M2591.982910,1453.191528 
	C2592.271729,1455.850098 2592.560547,1458.508545 2592.849609,1461.166992 
	C2596.334473,1457.935547 2597.203369,1454.949707 2594.013428,1450.118774 
	C2594.122803,1447.457397 2594.326172,1444.796021 2594.327393,1442.134644 
	C2594.346680,1395.170410 2594.341553,1348.206055 2594.341309,1301.241821 
	C2594.341309,1299.667358 2594.341064,1298.092773 2594.341064,1295.657715 
	C2589.981934,1295.657715 2586.401123,1295.657715 2582.820312,1295.657715 
	C2232.087158,1295.657715 1881.353882,1295.656372 1530.620728,1295.676147 
	C1526.971436,1295.676392 1523.322021,1295.955200 1517.881470,1295.718628 
	C1498.009155,1295.701294 1478.136597,1295.620361 1458.264526,1295.684937 
	C1439.398438,1295.746094 1420.532959,1295.959595 1399.865967,1295.740356 
	C1344.824463,1295.713501 1289.782837,1295.682617 1234.741333,1295.678345 
	C1233.097534,1295.678223 1231.453613,1295.956177 1227.998413,1295.719360 
	C1178.605591,1295.701782 1129.212769,1295.675659 1079.819946,1295.685425 
	C1076.518311,1295.686035 1073.216797,1295.959229 1068.084961,1295.725464 
	C1001.090332,1295.702881 934.095764,1295.665161 867.101135,1295.660889 
	C712.772034,1295.651245 558.442871,1295.655396 404.113770,1295.671387 
	C400.287201,1295.671753 396.460632,1295.874634 392.936096,1295.974609 
	C392.936096,1324.779053 392.936096,1352.290649 392.936096,1379.710449 
	C407.379211,1379.710449 421.204254,1379.710449 436.090759,1379.710449 
	C436.090759,1358.322998 436.090759,1337.545776 436.090759,1316.865845 
	C473.691254,1316.865845 510.211121,1316.865845 547.734009,1316.865845 
	C547.734009,1338.165039 547.734009,1358.959473 547.734009,1380.458496 
	C562.258057,1380.458496 575.792664,1380.458496 589.182251,1380.458496 
	C591.140869,1392.464233 590.723572,1442.324585 588.512695,1450.020752 
	C575.227356,1450.020752 561.716003,1450.020752 547.712402,1450.020752 
	C547.712402,1473.385498 547.692810,1495.993774 547.746582,1518.601929 
	C547.751282,1520.584595 548.115784,1522.591553 548.521667,1524.543701 
	C549.855286,1530.958130 553.336670,1533.683350 560.062134,1533.689087 
	C569.948669,1533.697632 579.835266,1533.691284 589.660461,1533.691284 
	C589.660461,1557.514893 589.660461,1580.291504 589.660461,1603.646362 
	C554.718811,1603.646362 520.431702,1604.093628 486.167328,1603.405273 
	C474.075287,1603.162354 462.499634,1599.582764 452.954071,1590.696411 
	C440.394073,1579.003540 435.798523,1564.466064 435.715393,1548.048462 
	C435.565186,1518.383301 435.684692,1488.717041 435.653473,1459.051147 
	C435.650421,1456.148926 435.381989,1453.246948 435.229645,1450.203125 
	C420.761688,1450.203125 406.939392,1450.203125 393.007751,1450.203125 
	C393.007751,1503.523560 393.007751,1556.295654 393.007751,1609.521240 
	C946.130859,1609.521240 1498.573853,1609.521240 2049.895752,1609.521240 
	C2032.393555,1607.045288 2013.842407,1604.042725 1995.649292,1598.627930 
	C1970.151855,1591.039062 1948.698608,1578.012451 1933.211426,1556.174561 
	C1925.381470,1545.133667 1919.954346,1532.782349 1918.016357,1519.309082 
	C1915.453857,1501.494629 1915.329834,1483.566772 1917.712402,1465.698853 
	C1920.254517,1446.635742 1927.742310,1429.720093 1941.166504,1415.846191 
	C1956.398804,1400.103638 1975.383667,1391.700195 1996.325806,1385.327881 
	C2019.457397,1378.289429 2042.953369,1375.435059 2066.588135,1374.689941 
	C2100.771729,1373.612305 2134.999268,1373.269531 2168.847656,1381.557495 
	C2183.893066,1385.241577 2199.008789,1388.540039 2212.441406,1395.895264 
	C2235.414307,1408.474243 2253.520996,1426.130127 2261.465332,1452.079102 
	C2263.973389,1460.271606 2264.868408,1468.955933 2266.624756,1477.256104 
	C2268.810791,1487.586548 2267.423584,1497.405396 2268.300781,1508.518311 
	C2187.163818,1508.518311 2106.810059,1508.518311 2026.092163,1508.518311 
	C2027.855591,1514.132935 2028.638916,1519.005981 2030.818726,1523.143188 
	C2038.895996,1538.471436 2053.208496,1546.120361 2069.209229,1547.489868 
	C2086.486816,1548.968872 2104.102295,1549.983643 2121.579102,1546.055298 
	C2136.930176,1542.604736 2150.073730,1536.909302 2156.688965,1522.242676 
	C2193.932129,1522.242676 2230.484619,1522.242676 2266.852539,1522.242676 
	C2267.221191,1523.401978 2267.565918,1523.995850 2267.578369,1524.596558 
	C2267.918701,1541.081177 2260.642090,1554.701782 2250.554199,1566.802368 
	C2238.497559,1581.265015 2222.687012,1590.697754 2204.829102,1596.082153 
	C2191.399902,1600.131104 2177.523193,1602.696045 2162.154297,1605.510132 
	C2153.198242,1606.490845 2144.242188,1607.471436 2135.285889,1608.452026 
	C2146.258545,1610.313477 2157.158203,1611.377808 2169.978760,1609.699707 
	C2311.187256,1609.699707 2452.395752,1609.699707 2593.773682,1609.699707 
	C2593.773682,1571.809814 2593.773682,1535.011475 2593.773682,1497.219482 
	C2557.087158,1497.219482 2520.958984,1497.219482 2486.238281,1497.219482 
	C2484.075928,1485.984375 2483.471680,1475.490845 2479.966553,1466.077759 
	C2471.163330,1442.436890 2437.811523,1435.853149 2419.265625,1453.146362 
	C2408.508057,1463.177124 2404.474365,1475.769897 2404.392334,1489.831909 
	C2404.191895,1524.160156 2404.337646,1558.490234 2404.310303,1592.819580 
	C2404.307617,1596.316528 2404.075684,1599.813232 2403.959229,1603.060547 
	C2365.922363,1603.060547 2329.083008,1603.060547 2292.291504,1603.060547 
	C2292.291504,1528.646973 2292.291504,1454.832031 2292.291504,1381.080444 
	C2311.191406,1379.258667 2396.049316,1379.912720 2404.287109,1382.173584 
	C2404.287109,1393.530151 2404.287109,1405.202759 2404.287109,1416.924683 
	C2411.777344,1410.065796 2418.003906,1402.962646 2425.527344,1397.720947 
	C2455.799561,1376.628906 2489.588867,1371.782837 2525.400635,1377.735840 
	C2563.416748,1384.055420 2586.549805,1410.520996 2591.982910,1453.191528 
M2134.929688,1462.342163 
	C2141.336670,1462.242065 2147.743896,1462.141846 2154.364990,1462.038330 
	C2150.304932,1445.340454 2139.811279,1438.710571 2125.258789,1434.605225 
	C2101.295166,1427.844116 2076.969727,1427.907959 2053.026367,1436.185913 
	C2039.170898,1440.975952 2031.195801,1449.702393 2030.317627,1462.342285 
	C2064.555420,1462.342285 2098.754639,1462.342285 2134.929688,1462.342163 
z" />
	<path fill="#020101" opacity="1.000000" stroke="none" d="
M2163.845703,1605.921631 
	C2177.523193,1602.696045 2191.399902,1600.131104 2204.829102,1596.082153 
	C2222.687012,1590.697754 2238.497559,1581.265015 2250.554199,1566.802368 
	C2260.642090,1554.701782 2267.918701,1541.081177 2267.578369,1524.596558 
	C2267.565918,1523.995850 2267.221191,1523.401978 2266.852539,1522.242676 
	C2230.484619,1522.242676 2193.932129,1522.242676 2156.688965,1522.242676 
	C2150.073730,1536.909302 2136.930176,1542.604736 2121.579102,1546.055298 
	C2104.102295,1549.983643 2086.486816,1548.968872 2069.209229,1547.489868 
	C2053.208496,1546.120361 2038.895996,1538.471436 2030.818726,1523.143188 
	C2028.638916,1519.005981 2027.855591,1514.132935 2026.092163,1508.518311 
	C2106.810059,1508.518311 2187.163818,1508.518311 2268.300781,1508.518311 
	C2267.423584,1497.405396 2268.810791,1487.586548 2266.624756,1477.256104 
	C2264.868408,1468.955933 2263.973389,1460.271606 2261.465332,1452.079102 
	C2253.520996,1426.130127 2235.414307,1408.474243 2212.441406,1395.895264 
	C2199.008789,1388.540039 2183.893066,1385.241577 2168.847656,1381.557495 
	C2134.999268,1373.269531 2100.771729,1373.612305 2066.588135,1374.689941 
	C2042.953369,1375.435059 2019.457397,1378.289429 1996.325806,1385.327881 
	C1975.383667,1391.700195 1956.398804,1400.103638 1941.166504,1415.846191 
	C1927.742310,1429.720093 1920.254517,1446.635742 1917.712402,1465.698853 
	C1915.329834,1483.566772 1915.453857,1501.494629 1918.016357,1519.309082 
	C1919.954346,1532.782349 1925.381470,1545.133667 1933.211426,1556.174561 
	C1948.698608,1578.012451 1970.151855,1591.039062 1995.649292,1598.627930 
	C2013.842407,1604.042725 2032.393555,1607.045288 2049.895752,1609.521240 
	C1498.573853,1609.521240 946.130859,1609.521240 393.007751,1609.521240 
	C393.007751,1556.295654 393.007751,1503.523560 393.007751,1450.203125 
	C406.939392,1450.203125 420.761688,1450.203125 435.229645,1450.203125 
	C435.381989,1453.246948 435.650421,1456.148926 435.653473,1459.051147 
	C435.684692,1488.717041 435.565186,1518.383301 435.715393,1548.048462 
	C435.798523,1564.466064 440.394073,1579.003540 452.954071,1590.696411 
	C462.499634,1599.582764 474.075287,1603.162354 486.167328,1603.405273 
	C520.431702,1604.093628 554.718811,1603.646362 589.660461,1603.646362 
	C589.660461,1580.291504 589.660461,1557.514893 589.660461,1533.691284 
	C579.835266,1533.691284 569.948669,1533.697632 560.062134,1533.689087 
	C553.336670,1533.683350 549.855286,1530.958130 548.521667,1524.543701 
	C548.115784,1522.591553 547.751282,1520.584595 547.746582,1518.601929 
	C547.692810,1495.993774 547.712402,1473.385498 547.712402,1450.020752 
	C561.716003,1450.020752 575.227356,1450.020752 588.512695,1450.020752 
	C590.723572,1442.324585 591.140869,1392.464233 589.182251,1380.458496 
	C575.792664,1380.458496 562.258057,1380.458496 547.734009,1380.458496 
	C547.734009,1358.959473 547.734009,1338.165039 547.734009,1316.865845 
	C510.211121,1316.865845 473.691254,1316.865845 436.090759,1316.865845 
	C436.090759,1337.545776 436.090759,1358.322998 436.090759,1379.710449 
	C421.204254,1379.710449 407.379211,1379.710449 392.936096,1379.710449 
	C392.936096,1352.290649 392.936096,1324.779053 392.936096,1295.974609 
	C396.460632,1295.874634 400.287201,1295.671753 404.113770,1295.671387 
	C558.442871,1295.655396 712.772034,1295.651245 867.101135,1295.660889 
	C934.095764,1295.665161 1001.090332,1295.702881 1068.806396,1296.582764 
	C1066.261475,1304.353027 1063.100220,1311.318115 1059.711914,1318.170898 
	C1028.152832,1381.996582 996.577454,1445.814209 964.956970,1509.609619 
	C952.542847,1534.655396 939.960144,1559.617676 927.551208,1584.666016 
	C924.670715,1590.480591 922.186523,1596.491455 919.362000,1602.762695 
	C921.518860,1603.235474 922.444031,1603.614624 923.369690,1603.615723 
	C959.678345,1603.661011 995.987549,1603.587280 1032.295166,1603.789429 
	C1037.098389,1603.816040 1039.555542,1601.936768 1041.395020,1597.812378 
	C1045.592163,1588.401978 1050.022217,1579.093384 1054.478394,1569.801270 
	C1057.021729,1564.497681 1059.802002,1559.307495 1062.355591,1554.301514 
	C1066.411621,1554.301514 1069.404297,1554.301392 1072.396851,1554.301392 
	C1123.362671,1554.301392 1174.330688,1554.541260 1225.292236,1554.070923 
	C1234.022095,1553.990356 1238.415161,1556.762817 1241.727173,1564.597534 
	C1247.274414,1577.719604 1253.905396,1590.383545 1259.993774,1603.060059 
	C1302.980103,1603.060059 1345.402466,1603.060059 1389.316162,1603.060059 
	C1384.394409,1593.190063 1380.147827,1584.311035 1375.590454,1575.594604 
	C1349.393921,1525.490479 1323.136841,1475.417847 1296.872314,1425.349121 
	C1283.895386,1400.610596 1270.765991,1375.951660 1257.879761,1351.166138 
	C1248.376953,1332.888184 1239.156250,1314.463745 1229.809814,1296.104492 
	C1231.453613,1295.956177 1233.097534,1295.678223 1234.741333,1295.678345 
	C1289.782837,1295.682617 1344.824463,1295.713501 1400.775146,1296.854248 
	C1401.687012,1323.271484 1401.690918,1348.574707 1401.692383,1373.877930 
	C1401.693726,1399.514160 1401.692627,1425.150391 1401.692627,1450.786621 
	C1401.692627,1476.089844 1401.581543,1501.393799 1401.723755,1526.696289 
	C1401.866943,1552.152954 1401.102905,1577.632935 1402.178101,1603.083374 
	C1441.780396,1603.083374 1480.239136,1603.083374 1519.672729,1603.083374 
	C1519.672729,1500.354614 1519.672729,1398.229370 1519.672729,1296.104004 
	C1523.322021,1295.955200 1526.971436,1295.676392 1530.620728,1295.676147 
	C1881.353882,1295.656372 2232.087158,1295.657715 2582.820312,1295.657715 
	C2586.401123,1295.657715 2589.981934,1295.657715 2594.341064,1295.657715 
	C2594.341064,1298.092773 2594.341309,1299.667358 2594.341309,1301.241821 
	C2594.341553,1348.206055 2594.346680,1395.170410 2594.327393,1442.134644 
	C2594.326172,1444.796021 2594.122803,1447.457397 2593.588623,1450.879883 
	C2593.163818,1451.641113 2592.283936,1451.578125 2592.283936,1451.578125 
	C2586.549805,1410.520996 2563.416748,1384.055420 2525.400635,1377.735840 
	C2489.588867,1371.782837 2455.799561,1376.628906 2425.527344,1397.720947 
	C2418.003906,1402.962646 2411.777344,1410.065796 2404.287109,1416.924683 
	C2404.287109,1405.202759 2404.287109,1393.530151 2404.287109,1382.173584 
	C2396.049316,1379.912720 2311.191406,1379.258667 2292.291504,1381.080444 
	C2292.291504,1454.832031 2292.291504,1528.646973 2292.291504,1603.060547 
	C2329.083008,1603.060547 2365.922363,1603.060547 2403.959229,1603.060547 
	C2404.075684,1599.813232 2404.307617,1596.316528 2404.310303,1592.819580 
	C2404.337646,1558.490234 2404.191895,1524.160156 2404.392334,1489.831909 
	C2404.474365,1475.769897 2408.508057,1463.177124 2419.265625,1453.146362 
	C2437.811523,1435.853149 2471.163330,1442.436890 2479.966553,1466.077759 
	C2483.471680,1475.490845 2484.075928,1485.984375 2486.238281,1497.219482 
	C2520.958984,1497.219482 2557.087158,1497.219482 2593.773682,1497.219482 
	C2593.773682,1535.011475 2593.773682,1571.809814 2593.773682,1609.699707 
	C2452.395752,1609.699707 2311.187256,1609.699707 2168.333496,1609.544922 
	C2164.771484,1609.028198 2161.865723,1609.476929 2163.845703,1605.921631 
M1554.329956,1530.999878 
	C1554.329956,1554.892944 1554.329956,1578.786011 1554.329956,1603.167969 
	C1592.423950,1603.167969 1629.539185,1603.167969 1667.670044,1603.167969 
	C1667.670044,1599.487671 1667.669922,1596.250122 1667.669922,1593.012451 
	C1667.669922,1565.696167 1667.630859,1538.379639 1667.700684,1511.063599 
	C1667.715942,1505.081787 1667.739136,1499.057983 1668.414429,1493.128052 
	C1670.420654,1475.511108 1678.450195,1461.665405 1694.733032,1453.514038 
	C1713.964600,1443.886719 1733.810181,1443.919067 1753.587402,1451.201172 
	C1764.404175,1455.183960 1771.951050,1463.538086 1775.478882,1474.411011 
	C1777.895386,1481.859253 1779.372559,1489.934448 1779.478882,1497.753662 
	C1779.913696,1529.727905 1779.645996,1561.711304 1779.682495,1593.691406 
	C1779.686157,1596.870361 1779.999756,1600.048950 1780.194824,1603.701904 
	C1818.524292,1603.481934 1855.939087,1604.031738 1893.251221,1603.369507 
	C1893.471191,1601.025513 1893.645386,1600.033447 1893.645874,1599.041382 
	C1893.663330,1553.070068 1893.794189,1507.098022 1893.530273,1461.128296 
	C1893.490967,1454.272339 1892.261108,1447.241089 1890.430420,1440.608887 
	C1881.888916,1409.666748 1860.909546,1390.917480 1830.807251,1381.900879 
	C1803.899902,1373.841309 1776.418091,1373.722412 1748.984985,1378.374634 
	C1730.304443,1381.542603 1711.911499,1386.312256 1695.811157,1397.011719 
	C1686.534546,1403.176392 1677.604736,1409.862915 1667.625244,1416.948853 
	C1667.625244,1404.754150 1667.625244,1392.984131 1667.625244,1380.848755 
	C1629.505371,1380.848755 1592.390137,1380.848755 1554.329956,1380.848755 
	C1554.329956,1430.574219 1554.329956,1479.786987 1554.329956,1530.999878 
M729.669861,1588.775879 
	C729.669861,1555.460938 729.491516,1522.144043 729.823486,1488.832520 
	C729.888184,1482.339966 731.083008,1475.567993 733.231506,1469.442261 
	C739.452393,1451.705444 754.985596,1442.224609 773.633301,1443.873657 
	C792.912598,1445.578491 805.051270,1456.875488 808.198669,1476.465576 
	C809.286194,1483.234741 809.657166,1490.119141 810.360779,1497.004150 
	C846.817993,1497.004150 882.922729,1497.004150 920.214050,1497.004150 
	C919.566528,1484.092773 918.884521,1471.892700 918.358826,1459.685791 
	C917.565857,1441.274292 911.352478,1424.692017 901.677612,1409.224487 
	C894.171814,1397.224609 883.404297,1389.287354 870.593445,1383.726562 
	C853.710205,1376.398071 835.931580,1375.055420 817.882263,1375.695068 
	C784.527954,1376.876953 755.770508,1388.472290 733.081482,1413.602295 
	C731.957642,1414.847046 730.558289,1415.843018 727.814209,1418.243164 
	C727.814209,1404.450073 727.814209,1392.651489 727.814209,1380.840820 
	C690.114319,1380.840820 653.287292,1380.840820 616.122253,1380.840820 
	C616.122253,1455.148926 616.122253,1528.945801 616.122253,1603.077637 
	C654.014771,1603.077637 691.443115,1603.077637 729.669861,1603.077637 
	C729.669861,1598.565430 729.669861,1594.636597 729.669861,1588.775879 
z" />
	<path fill="#FE0000" opacity="1.000000" stroke="none" d="
M1228.904053,1295.911865 
	C1239.156250,1314.463745 1248.376953,1332.888184 1257.879761,1351.166138 
	C1270.765991,1375.951660 1283.895386,1400.610596 1296.872314,1425.349121 
	C1323.136841,1475.417847 1349.393921,1525.490479 1375.590454,1575.594604 
	C1380.147827,1584.311035 1384.394409,1593.190063 1389.316162,1603.060059 
	C1345.402466,1603.060059 1302.980103,1603.060059 1259.993774,1603.060059 
	C1253.905396,1590.383545 1247.274414,1577.719604 1241.727173,1564.597534 
	C1238.415161,1556.762817 1234.022095,1553.990356 1225.292236,1554.070923 
	C1174.330688,1554.541260 1123.362671,1554.301392 1072.396851,1554.301392 
	C1069.404297,1554.301392 1066.411621,1554.301514 1062.355591,1554.301514 
	C1059.802002,1559.307495 1057.021729,1564.497681 1054.478394,1569.801270 
	C1050.022217,1579.093384 1045.592163,1588.401978 1041.395020,1597.812378 
	C1039.555542,1601.936768 1037.098389,1603.816040 1032.295166,1603.789429 
	C995.987549,1603.587280 959.678345,1603.661011 923.369690,1603.615723 
	C922.444031,1603.614624 921.518860,1603.235474 919.362000,1602.762695 
	C922.186523,1596.491455 924.670715,1590.480591 927.551208,1584.666016 
	C939.960144,1559.617676 952.542847,1534.655396 964.956970,1509.609619 
	C996.577454,1445.814209 1028.152832,1381.996582 1059.711914,1318.170898 
	C1063.100220,1311.318115 1066.261475,1304.353027 1069.721558,1296.772705 
	C1073.216797,1295.959229 1076.518311,1295.686035 1079.819946,1295.685425 
	C1129.212769,1295.675659 1178.605591,1295.701782 1228.904053,1295.911865 
M1169.545532,1417.398071 
	C1161.852539,1403.647461 1156.756104,1388.506836 1147.237671,1373.950562 
	C1130.795410,1408.531372 1115.045776,1441.655151 1098.799316,1475.824097 
	C1132.617554,1475.824097 1164.676270,1475.824097 1197.885620,1475.824097 
	C1188.365845,1456.249268 1179.251587,1437.508423 1169.545532,1417.398071 
z" />
	<path fill="#FE0000" opacity="1.000000" stroke="none" d="
M1518.777100,1295.911377 
	C1519.672729,1398.229370 1519.672729,1500.354614 1519.672729,1603.083374 
	C1480.239136,1603.083374 1441.780396,1603.083374 1402.178101,1603.083374 
	C1401.102905,1577.632935 1401.866943,1552.152954 1401.723755,1526.696289 
	C1401.581543,1501.393799 1401.692627,1476.089844 1401.692627,1450.786621 
	C1401.692627,1425.150391 1401.693726,1399.514160 1401.692383,1373.877930 
	C1401.690918,1348.574707 1401.687012,1323.271484 1401.675781,1297.037109 
	C1420.532959,1295.959595 1439.398438,1295.746094 1458.264526,1295.684937 
	C1478.136597,1295.620361 1498.009155,1295.701294 1518.777100,1295.911377 
z" />
	<path fill="#020101" opacity="1.000000" stroke="none" d="
M2133.941895,1462.342285 
	C2098.754639,1462.342285 2064.555420,1462.342285 2030.317627,1462.342285 
	C2031.195801,1449.702393 2039.170898,1440.975952 2053.026367,1436.185913 
	C2076.969727,1427.907959 2101.295166,1427.844116 2125.258789,1434.605225 
	C2139.811279,1438.710571 2150.304932,1445.340454 2154.364990,1462.038330 
	C2147.743896,1462.141846 2141.336670,1462.242065 2133.941895,1462.342285 
z" />
	<path fill="#C7BFBF" opacity="1.000000" stroke="none" d="
M2163.000000,1605.715820 
	C2161.865723,1609.476929 2164.771484,1609.028198 2167.409180,1609.648193 
	C2157.158203,1611.377808 2146.258545,1610.313477 2135.285889,1608.452026 
	C2144.242188,1607.471436 2153.198242,1606.490845 2163.000000,1605.715820 
z" />
	<path fill="#C7BFBF" opacity="1.000000" stroke="none" d="
M2592.133301,1452.384766 
	C2592.283936,1451.578125 2593.163818,1451.641113 2593.568359,1451.817139 
	C2597.203369,1454.949707 2596.334473,1457.935547 2592.849609,1461.166992 
	C2592.560547,1458.508545 2592.271729,1455.850098 2592.133301,1452.384766 
z" />
	<path fill="#FDFDFD" opacity="1.000000" stroke="none" d="
M1554.329956,1529.999756 
	C1554.329956,1479.786987 1554.329956,1430.574219 1554.329956,1380.848755 
	C1592.390137,1380.848755 1629.505371,1380.848755 1667.625244,1380.848755 
	C1667.625244,1392.984131 1667.625244,1404.754150 1667.625244,1416.948853 
	C1677.604736,1409.862915 1686.534546,1403.176392 1695.811157,1397.011719 
	C1711.911499,1386.312256 1730.304443,1381.542603 1748.984985,1378.374634 
	C1776.418091,1373.722412 1803.899902,1373.841309 1830.807251,1381.900879 
	C1860.909546,1390.917480 1881.888916,1409.666748 1890.430420,1440.608887 
	C1892.261108,1447.241089 1893.490967,1454.272339 1893.530273,1461.128296 
	C1893.794189,1507.098022 1893.663330,1553.070068 1893.645874,1599.041382 
	C1893.645386,1600.033447 1893.471191,1601.025513 1893.251221,1603.369507 
	C1855.939087,1604.031738 1818.524292,1603.481934 1780.194824,1603.701904 
	C1779.999756,1600.048950 1779.686157,1596.870361 1779.682495,1593.691406 
	C1779.645996,1561.711304 1779.913696,1529.727905 1779.478882,1497.753662 
	C1779.372559,1489.934448 1777.895386,1481.859253 1775.478882,1474.411011 
	C1771.951050,1463.538086 1764.404175,1455.183960 1753.587402,1451.201172 
	C1733.810181,1443.919067 1713.964600,1443.886719 1694.733032,1453.514038 
	C1678.450195,1461.665405 1670.420654,1475.511108 1668.414429,1493.128052 
	C1667.739136,1499.057983 1667.715942,1505.081787 1667.700684,1511.063599 
	C1667.630859,1538.379639 1667.669922,1565.696167 1667.669922,1593.012451 
	C1667.669922,1596.250122 1667.670044,1599.487671 1667.670044,1603.167969 
	C1629.539185,1603.167969 1592.423950,1603.167969 1554.329956,1603.167969 
	C1554.329956,1578.786011 1554.329956,1554.892944 1554.329956,1529.999756 
z" />
	<path fill="#FDFDFD" opacity="1.000000" stroke="none" d="
M729.669861,1589.741821 
	C729.669861,1594.636597 729.669861,1598.565430 729.669861,1603.077637 
	C691.443115,1603.077637 654.014771,1603.077637 616.122253,1603.077637 
	C616.122253,1528.945801 616.122253,1455.148926 616.122253,1380.840820 
	C653.287292,1380.840820 690.114319,1380.840820 727.814209,1380.840820 
	C727.814209,1392.651489 727.814209,1404.450073 727.814209,1418.243164 
	C730.558289,1415.843018 731.957642,1414.847046 733.081482,1413.602295 
	C755.770508,1388.472290 784.527954,1376.876953 817.882263,1375.695068 
	C835.931580,1375.055420 853.710205,1376.398071 870.593445,1383.726562 
	C883.404297,1389.287354 894.171814,1397.224609 901.677612,1409.224487 
	C911.352478,1424.692017 917.565857,1441.274292 918.358826,1459.685791 
	C918.884521,1471.892700 919.566528,1484.092773 920.214050,1497.004150 
	C882.922729,1497.004150 846.817993,1497.004150 810.360779,1497.004150 
	C809.657166,1490.119141 809.286194,1483.234741 808.198669,1476.465576 
	C805.051270,1456.875488 792.912598,1445.578491 773.633301,1443.873657 
	C754.985596,1442.224609 739.452393,1451.705444 733.231506,1469.442261 
	C731.083008,1475.567993 729.888184,1482.339966 729.823486,1488.832520 
	C729.491516,1522.144043 729.669861,1555.460938 729.669861,1589.741821 
z" />
	<path fill="#020101" opacity="1.000000" stroke="none" d="
M1169.841553,1418.082886 
	C1179.251587,1437.508423 1188.365845,1456.249268 1197.885620,1475.824097 
	C1164.676270,1475.824097 1132.617554,1475.824097 1098.799316,1475.824097 
	C1115.045776,1441.655151 1130.795410,1408.531372 1147.237671,1373.950562 
	C1156.756104,1388.506836 1161.852539,1403.647461 1169.841553,1418.082886 
z" />
</svg>